<mxfile host="65bd71144e">
    <diagram id="vQG2rVUmP_15jDssrkWm" name="Page-1">
        <mxGraphModel dx="944" dy="674" grid="1" gridSize="10" guides="1" tooltips="1" connect="1" arrows="1" fold="1" page="1" pageScale="1" pageWidth="850" pageHeight="1100" math="0" shadow="0">
            <root>
                <mxCell id="0"/>
                <mxCell id="1" parent="0"/>
                <mxCell id="34" value="" style="rounded=0;whiteSpace=wrap;html=1;" parent="1" vertex="1">
                    <mxGeometry x="240" y="70" width="580" height="360" as="geometry"/>
                </mxCell>
                <mxCell id="130" style="edgeStyle=none;html=1;exitX=1;exitY=0.125;exitDx=0;exitDy=0;entryX=0;entryY=0.25;entryDx=0;entryDy=0;exitPerimeter=0;startArrow=ERzeroToMany;startFill=0;endArrow=ERone;endFill=0;" edge="1" parent="1" source="38" target="126">
                    <mxGeometry relative="1" as="geometry"/>
                </mxCell>
                <mxCell id="38" value="売上" style="swimlane;fontStyle=0;childLayout=stackLayout;horizontal=1;startSize=26;fillColor=none;horizontalStack=0;resizeParent=1;resizeParentMax=0;resizeLast=0;collapsible=0;marginBottom=0;swimlaneLine=1;strokeColor=default;connectable=1;allowArrows=1;" parent="1" vertex="1">
                    <mxGeometry x="400" y="140" width="90" height="104" as="geometry">
                        <mxRectangle x="390" y="120" width="80" height="26" as="alternateBounds"/>
                    </mxGeometry>
                </mxCell>
                <mxCell id="46" value="売上額" style="text;strokeColor=none;fillColor=none;align=left;verticalAlign=top;spacingLeft=4;spacingRight=4;overflow=hidden;rotatable=0;points=[[0,0.5],[1,0.5]];portConstraint=eastwest;" parent="38" vertex="1">
                    <mxGeometry y="26" width="90" height="26" as="geometry"/>
                </mxCell>
                <mxCell id="94" value="来店人数" style="text;strokeColor=none;fillColor=none;align=left;verticalAlign=top;spacingLeft=4;spacingRight=4;overflow=hidden;rotatable=0;points=[[0,0.5],[1,0.5]];portConstraint=eastwest;" parent="38" vertex="1">
                    <mxGeometry y="52" width="90" height="26" as="geometry"/>
                </mxCell>
                <mxCell id="97" value="売上時刻" style="text;strokeColor=none;fillColor=none;align=left;verticalAlign=top;spacingLeft=4;spacingRight=4;overflow=hidden;rotatable=0;points=[[0,0.5],[1,0.5]];portConstraint=eastwest;" parent="38" vertex="1">
                    <mxGeometry y="78" width="90" height="26" as="geometry"/>
                </mxCell>
                <mxCell id="66" style="edgeStyle=none;html=1;entryX=0;entryY=0.25;entryDx=0;entryDy=0;startArrow=ERone;startFill=0;endArrow=ERzeroToMany;endFill=0;exitX=1;exitY=0.5;exitDx=0;exitDy=0;" parent="1" source="64" target="38" edge="1">
                    <mxGeometry relative="1" as="geometry">
                        <mxPoint x="320" y="160" as="sourcePoint"/>
                    </mxGeometry>
                </mxCell>
                <mxCell id="64" value="店舗" style="swimlane;fontStyle=0;childLayout=stackLayout;horizontal=1;startSize=26;fillColor=none;horizontalStack=0;resizeParent=1;resizeParentMax=0;resizeLast=0;collapsible=0;marginBottom=0;swimlaneLine=1;strokeColor=default;connectable=1;allowArrows=1;" parent="1" vertex="1">
                    <mxGeometry x="270" y="140" width="50" height="52" as="geometry">
                        <mxRectangle x="390" y="120" width="80" height="26" as="alternateBounds"/>
                    </mxGeometry>
                </mxCell>
                <mxCell id="65" value="名称" style="text;strokeColor=none;fillColor=none;align=left;verticalAlign=top;spacingLeft=4;spacingRight=4;overflow=hidden;rotatable=0;points=[[0,0.5],[1,0.5]];portConstraint=eastwest;" parent="64" vertex="1">
                    <mxGeometry y="26" width="50" height="26" as="geometry"/>
                </mxCell>
                <mxCell id="92" value="" style="edgeStyle=none;html=1;endArrow=ERone;endFill=0;startArrow=ERoneToMany;startFill=0;entryX=0.504;entryY=0.971;entryDx=0;entryDy=0;entryPerimeter=0;" parent="1" source="88" target="97" edge="1">
                    <mxGeometry relative="1" as="geometry">
                        <mxPoint x="445" y="250" as="targetPoint"/>
                    </mxGeometry>
                </mxCell>
                <mxCell id="88" value="売上明細" style="swimlane;fontStyle=0;childLayout=stackLayout;horizontal=1;startSize=26;fillColor=none;horizontalStack=0;resizeParent=1;resizeParentMax=0;resizeLast=0;collapsible=0;marginBottom=0;swimlaneLine=1;strokeColor=default;connectable=1;allowArrows=1;" parent="1" vertex="1">
                    <mxGeometry x="400" y="296" width="90" height="52" as="geometry">
                        <mxRectangle x="390" y="120" width="80" height="26" as="alternateBounds"/>
                    </mxGeometry>
                </mxCell>
                <mxCell id="89" value="数量" style="text;strokeColor=none;fillColor=none;align=left;verticalAlign=top;spacingLeft=4;spacingRight=4;overflow=hidden;rotatable=0;points=[[0,0.5],[1,0.5]];portConstraint=eastwest;" parent="88" vertex="1">
                    <mxGeometry y="26" width="90" height="26" as="geometry"/>
                </mxCell>
                <mxCell id="90" value="品目" style="swimlane;fontStyle=0;childLayout=stackLayout;horizontal=1;startSize=26;fillColor=none;horizontalStack=0;resizeParent=1;resizeParentMax=0;resizeLast=0;collapsible=0;marginBottom=0;swimlaneLine=1;strokeColor=default;connectable=1;allowArrows=1;" parent="1" vertex="1">
                    <mxGeometry x="540" y="296" width="90" height="78" as="geometry">
                        <mxRectangle x="390" y="120" width="80" height="26" as="alternateBounds"/>
                    </mxGeometry>
                </mxCell>
                <mxCell id="91" value="名称" style="text;strokeColor=none;fillColor=none;align=left;verticalAlign=top;spacingLeft=4;spacingRight=4;overflow=hidden;rotatable=0;points=[[0,0.5],[1,0.5]];portConstraint=eastwest;" parent="90" vertex="1">
                    <mxGeometry y="26" width="90" height="26" as="geometry"/>
                </mxCell>
                <mxCell id="95" value="価格" style="text;strokeColor=none;fillColor=none;align=left;verticalAlign=top;spacingLeft=4;spacingRight=4;overflow=hidden;rotatable=0;points=[[0,0.5],[1,0.5]];portConstraint=eastwest;" parent="90" vertex="1">
                    <mxGeometry y="52" width="90" height="26" as="geometry"/>
                </mxCell>
                <mxCell id="93" style="edgeStyle=none;html=1;startArrow=ERzeroToMany;startFill=0;endArrow=ERone;endFill=0;" parent="1" source="89" target="91" edge="1">
                    <mxGeometry relative="1" as="geometry"/>
                </mxCell>
                <mxCell id="131" style="edgeStyle=none;html=1;exitX=1;exitY=0.25;exitDx=0;exitDy=0;entryX=0;entryY=0.25;entryDx=0;entryDy=0;startArrow=ERzeroToMany;startFill=0;endArrow=ERone;endFill=0;" edge="1" parent="1" source="126" target="128">
                    <mxGeometry relative="1" as="geometry"/>
                </mxCell>
                <mxCell id="126" value="性別ごとの年齢層" style="swimlane;fontStyle=0;childLayout=stackLayout;horizontal=1;startSize=26;fillColor=none;horizontalStack=0;resizeParent=1;resizeParentMax=0;resizeLast=0;collapsible=0;marginBottom=0;swimlaneLine=1;strokeColor=default;connectable=1;allowArrows=1;" vertex="1" parent="1">
                    <mxGeometry x="540" y="140" width="110" height="52" as="geometry">
                        <mxRectangle x="390" y="120" width="80" height="26" as="alternateBounds"/>
                    </mxGeometry>
                </mxCell>
                <mxCell id="127" value="性別" style="text;strokeColor=none;fillColor=none;align=left;verticalAlign=top;spacingLeft=4;spacingRight=4;overflow=hidden;rotatable=0;points=[[0,0.5],[1,0.5]];portConstraint=eastwest;" vertex="1" parent="126">
                    <mxGeometry y="26" width="110" height="26" as="geometry"/>
                </mxCell>
                <mxCell id="128" value="年齢層" style="swimlane;fontStyle=0;childLayout=stackLayout;horizontal=1;startSize=26;fillColor=none;horizontalStack=0;resizeParent=1;resizeParentMax=0;resizeLast=0;collapsible=0;marginBottom=0;swimlaneLine=1;strokeColor=default;connectable=1;allowArrows=1;" vertex="1" parent="1">
                    <mxGeometry x="700" y="140" width="50" height="52" as="geometry">
                        <mxRectangle x="390" y="120" width="80" height="26" as="alternateBounds"/>
                    </mxGeometry>
                </mxCell>
            </root>
        </mxGraphModel>
    </diagram>
</mxfile>